:version	1.10
:name	0101
:units
	mass	kg
	length	m
	angle	deg
:documentation
	fps:30
:root
	axis	XYZ
	order	TX	TY	TZ	RX	RY	RZ
	position	0.00	0.00	0.00
	orientation	0.00	0.00	0.00
:bonedata
	begin
		id	1
		name	Head
		direction	-18.5	116.2	-38.8
		length	123.9
		axis	0.0	0.0	0.0	XYZ
		dof	rx	ry	rz
		limits	(-inf	inf)
			(-inf	inf)
			(-inf	inf)
	end
	begin
		id	2
		name	Neck
		direction	-1.6	89.5	-15.3
		length	90.8
		axis	0.0	0.0	0.0	XYZ
		dof	rx	ry	rz
		limits	(-inf	inf)
			(-inf	inf)
			(-inf	inf)
	end
	begin
		id	3
		name	LeftCollar
		direction	-5.0	276.0	-47.2
		length	280.1
		axis	0.0	0.0	0.0	XYZ
		dof	rx	ry	rz
		limits	(-inf	inf)
			(-inf	inf)
			(-inf	inf)
	end
	begin
		id	4
		name	Torso
		direction	4.0	199.4	8.5
		length	199.7
		axis	0.0	0.0	0.0	XYZ
		dof	rx	ry	rz
		limits	(-inf	inf)
			(-inf	inf)
			(-inf	inf)
	end
	begin
		id	5
		name	LeftShoulder
		direction	170.7	-14.1	-44.7
		length	177.0
		axis	0.0	0.0	0.0	XYZ
		dof	rx	ry	rz
		limits	(-inf	inf)
			(-inf	inf)
			(-inf	inf)
	end
	begin
		id	6
		name	RightShoulder
		direction	-174.2	6.3	52.4
		length	182.0
		axis	0.0	0.0	0.0	XYZ
		dof	rx	ry	rz
		limits	(-inf	inf)
			(-inf	inf)
			(-inf	inf)
	end
	begin
		id	7
		name	LeftElbow
		direction	55.3	-271.7	26.6
		length	278.5
		axis	0.0	0.0	0.0	XYZ
		dof	rx	ry	rz
		limits	(-inf	inf)
			(-inf	inf)
			(-inf	inf)
	end
	begin
		id	8
		name	RightElbow
		direction	-37.0	-268.0	66.2
		length	278.5
		axis	0.0	0.0	0.0	XYZ
		dof	rx	ry	rz
		limits	(-inf	inf)
			(-inf	inf)
			(-inf	inf)
	end
	begin
		id	9
		name	LeftWrist
		direction	69.1	-260.5	-128.7
		length	298.7
		axis	0.0	0.0	0.0	XYZ
		dof	rx	ry	rz
		limits	(-inf	inf)
			(-inf	inf)
			(-inf	inf)
	end
	begin
		id	10
		name	RightWrist
		direction	-79.9	-277.4	-76.9
		length	298.7
		axis	0.0	0.0	0.0	XYZ
		dof	rx	ry	rz
		limits	(-inf	inf)
			(-inf	inf)
			(-inf	inf)
	end
	begin
		id	11
		name	LeftHand
		direction	13.8	-52.1	-25.7
		length	59.7
		axis	0.0	0.0	0.0	XYZ
		dof	rx	ry	rz
		limits	(-inf	inf)
			(-inf	inf)
			(-inf	inf)
	end
	begin
		id	12
		name	RightHand
		direction	-16.0	-55.5	-15.4
		length	59.7
		axis	0.0	0.0	0.0	XYZ
		dof	rx	ry	rz
		limits	(-inf	inf)
			(-inf	inf)
			(-inf	inf)
	end
	begin
		id	13
		name	LeftHip
		direction	117.3	-70.1	12.8
		length	137.3
		axis	0.0	0.0	0.0	XYZ
		dof	rx	ry	rz
		limits	(-inf	inf)
			(-inf	inf)
			(-inf	inf)
	end
	begin
		id	14
		name	RightHip
		direction	-108.5	-76.7	41.0
		length	139.0
		axis	0.0	0.0	0.0	XYZ
		dof	rx	ry	rz
		limits	(-inf	inf)
			(-inf	inf)
			(-inf	inf)
	end
	begin
		id	15
		name	LeftKnee
		direction	-0.2	-428.3	-95.5
		length	438.9
		axis	0.0	0.0	0.0	XYZ
		dof	rx	ry	rz
		limits	(-inf	inf)
			(-inf	inf)
			(-inf	inf)
	end
	begin
		id	16
		name	RightKnee
		direction	16.9	-434.8	-56.9
		length	438.9
		axis	0.0	0.0	0.0	XYZ
		dof	rx	ry	rz
		limits	(-inf	inf)
			(-inf	inf)
			(-inf	inf)
	end
	begin
		id	17
		name	LeftAnkle
		direction	51.1	-389.3	75.6
		length	399.8
		axis	0.0	0.0	0.0	XYZ
		dof	rx	ry	rz
		limits	(-inf	inf)
			(-inf	inf)
			(-inf	inf)
	end
	begin
		id	18
		name	RightAnkle
		direction	-36.9	-388.8	85.6
		length	399.8
		axis	0.0	0.0	0.0	XYZ
		dof	rx	ry	rz
		limits	(-inf	inf)
			(-inf	inf)
			(-inf	inf)
	end
:hierarchy
	begin
		Neck	Head
		LeftCollar	Neck	LeftShoulder	RightShoulder
		Torso	LeftCollar
		root	Torso	LeftHip	RightHip
		LeftShoulder	LeftElbow
		RightShoulder	RightElbow
		LeftElbow	LeftWrist
		RightElbow	RightWrist
		LeftWrist	LeftHand
		RightWrist	RightHand
		LeftHip	LeftKnee
		RightHip	RightKnee
		LeftKnee	LeftAnkle
		RightKnee	RightAnkle
	end

:FULLY-SPECIFIED
:DEGREES
139
Head	-24.38	11.27	-3.38
Neck	-24.38	11.27	-3.38
LeftCollar	-24.38	11.27	-3.38
Torso	-24.38	11.27	-3.38
root	125.06	38.58	2839.65	-3.67	4.26	0.81
LeftShoulder	-16.83	-6.10	-66.88
RightShoulder	-1.57	23.33	76.98
LeftElbow	-19.23	29.05	-78.33
RightElbow	-1.56	-22.49	78.20
LeftWrist	-19.26	29.25	-78.41
RightWrist	-1.56	-22.59	78.20
LeftHand	-19.26	29.25	-78.41
RightHand	-1.56	-22.59	78.20
LeftHip	17.89	32.05	6.13
RightHip	9.57	-30.96	0.88
LeftKnee	-5.47	32.05	6.13
RightKnee	-5.51	-30.96	0.88
LeftAnkle	-5.47	32.05	6.13
RightAnkle	-5.51	-30.96	0.88
140
Head	-27.84	9.11	-3.37
Neck	-27.84	9.11	-3.37
LeftCollar	-27.84	9.11	-3.37
Torso	-27.84	9.11	-3.37
root	124.34	32.77	2851.00	-5.65	3.97	0.83
LeftShoulder	-19.16	-4.23	-66.58
RightShoulder	-6.67	23.99	75.57
LeftElbow	-21.95	28.87	-79.06
RightElbow	-6.56	-21.67	80.73
LeftWrist	-21.94	28.81	-79.04
RightWrist	-6.57	-21.88	80.75
LeftHand	-21.94	28.81	-79.04
RightHand	-6.57	-21.88	80.75
LeftHip	20.34	28.78	6.50
RightHip	12.12	-27.35	0.62
LeftKnee	-6.65	28.78	6.50
RightKnee	-5.91	-27.35	0.62
LeftAnkle	-6.65	28.78	6.50
RightAnkle	-5.91	-27.35	0.62
141
Head	-31.04	7.53	-3.75
Neck	-31.04	7.53	-3.75
LeftCollar	-31.04	7.53	-3.75
Torso	-31.04	7.53	-3.75
root	123.84	22.93	2863.17	-7.62	5.61	0.77
LeftShoulder	-21.47	-3.98	-66.60
RightShoulder	-11.31	25.35	73.80
LeftElbow	-24.53	28.42	-80.42
RightElbow	-10.86	-19.84	82.42
LeftWrist	-24.52	28.37	-80.39
RightWrist	-10.88	-20.09	82.47
LeftHand	-24.52	28.37	-80.39
RightHand	-10.88	-20.09	82.47
LeftHip	20.29	30.49	6.96
RightHip	10.44	-25.50	0.27
LeftKnee	-4.93	30.49	6.96
RightKnee	-0.90	-25.50	0.27
LeftAnkle	-4.93	30.49	6.96
RightAnkle	-0.90	-25.50	0.27
142
Head	-31.04	7.53	-3.75
Neck	-31.04	7.53	-3.75
LeftCollar	-31.04	7.53	-3.75
Torso	-31.04	7.53	-3.75
root	123.84	22.93	2863.17	-7.62	5.61	0.77
LeftShoulder	-21.47	-3.98	-66.60
RightShoulder	-11.31	25.35	73.80
LeftElbow	-24.53	28.42	-80.42
RightElbow	-10.86	-19.84	82.42
LeftWrist	-24.52	28.37	-80.39
RightWrist	-10.88	-20.09	82.47
LeftHand	-24.52	28.37	-80.39
RightHand	-10.88	-20.09	82.47
LeftHip	20.29	30.49	6.96
RightHip	10.44	-25.50	0.27
LeftKnee	-4.93	30.49	6.96
RightKnee	-0.90	-25.50	0.27
LeftAnkle	-4.93	30.49	6.96
RightAnkle	-0.90	-25.50	0.27
143
Head	-34.37	7.04	-5.20
Neck	-34.37	7.04	-5.20
LeftCollar	-34.37	7.04	-5.20
Torso	-34.37	7.04	-5.20
root	122.82	-16.42	2883.31	-12.09	6.70	-1.21
LeftShoulder	-19.59	-3.92	-67.29
RightShoulder	-18.96	23.38	71.62
LeftElbow	-22.74	30.07	-80.55
RightElbow	-18.21	-17.31	84.98
LeftWrist	-22.94	30.86	-80.93
RightWrist	-18.29	-18.08	85.24
LeftHand	-22.94	30.86	-80.93
RightHand	-18.29	-18.08	85.24
LeftHip	29.31	9.95	4.67
RightHip	24.02	-8.56	1.77
LeftKnee	-14.00	9.95	4.67
RightKnee	-10.80	-8.56	1.77
LeftAnkle	-14.00	9.95	4.67
RightAnkle	-10.80	-8.56	1.77
144
Head	-36.43	6.97	-5.41
Neck	-36.43	6.97	-5.41
LeftCollar	-36.43	6.97	-5.41
Torso	-36.43	6.97	-5.41
root	123.01	-36.30	2892.78	-13.36	5.96	-1.50
LeftShoulder	-20.89	-5.36	-66.52
RightShoulder	-17.97	25.36	72.26
LeftElbow	-24.69	31.80	-82.18
RightElbow	-17.08	-18.35	85.69
LeftWrist	-25.09	33.17	-82.93
RightWrist	-17.23	-19.75	86.15
LeftHand	-25.09	33.17	-82.93
RightHand	-17.23	-19.75	86.15
LeftHip	32.87	8.11	4.99
RightHip	26.96	-6.94	1.78
LeftKnee	-15.69	8.11	4.99
RightKnee	-13.73	-6.94	1.78
LeftAnkle	-15.69	8.11	4.99
RightAnkle	-13.73	-6.94	1.78
145
Head	-36.43	6.97	-5.41
Neck	-36.43	6.97	-5.41
LeftCollar	-36.43	6.97	-5.41
Torso	-36.43	6.97	-5.41
root	123.01	-36.30	2892.78	-13.36	5.96	-1.50
LeftShoulder	-20.89	-5.36	-66.52
RightShoulder	-17.97	25.36	72.26
LeftElbow	-24.69	31.80	-82.18
RightElbow	-17.08	-18.35	85.69
LeftWrist	-25.09	33.17	-82.93
RightWrist	-17.23	-19.75	86.15
LeftHand	-25.09	33.17	-82.93
RightHand	-17.23	-19.75	86.15
LeftHip	32.87	8.11	4.99
RightHip	26.96	-6.94	1.78
LeftKnee	-15.69	8.11	4.99
RightKnee	-13.73	-6.94	1.78
LeftAnkle	-15.69	8.11	4.99
RightAnkle	-13.73	-6.94	1.78
146
Head	-40.47	6.83	-5.90
Neck	-40.47	6.83	-5.90
LeftCollar	-40.47	6.83	-5.90
Torso	-40.47	6.83	-5.90
root	123.27	-90.56	2905.72	-15.30	3.45	-1.64
LeftShoulder	-25.65	-8.83	-64.60
RightShoulder	-20.51	28.05	72.55
LeftElbow	-33.49	39.17	-91.49
RightElbow	-19.29	-20.59	89.55
LeftWrist	-35.11	41.96	-93.99
RightWrist	-19.63	-23.02	90.47
LeftHand	-35.11	41.96	-93.99
RightHand	-19.63	-23.02	90.47
LeftHip	40.33	3.86	5.53
RightHip	31.54	-2.45	1.91
LeftKnee	-19.20	3.86	5.53
RightKnee	-16.69	-2.45	1.91
LeftAnkle	-19.20	3.86	5.53
RightAnkle	-16.69	-2.45	1.91
147
Head	-41.85	7.00	-6.44
Neck	-41.85	7.00	-6.44
LeftCollar	-41.85	7.00	-6.44
Torso	-41.85	7.00	-6.44
root	123.01	-125.16	2910.18	-16.70	2.19	-2.23
LeftShoulder	-27.77	-10.88	-64.23
RightShoulder	-20.27	30.29	73.36
LeftElbow	-38.89	43.22	-98.82
RightElbow	-19.10	-23.89	91.90
LeftWrist	-41.60	46.44	-102.66
RightWrist	-19.61	-26.95	93.08
LeftHand	-41.60	46.44	-102.66
RightHand	-19.61	-26.95	93.08
LeftHip	44.96	2.83	6.32
RightHip	34.52	-1.74	1.85
LeftKnee	-21.64	2.83	6.32
RightKnee	-19.89	-1.74	1.85
LeftAnkle	-21.64	2.83	6.32
RightAnkle	-19.89	-1.74	1.85
148
Head	-41.85	7.00	-6.44
Neck	-41.85	7.00	-6.44
LeftCollar	-41.85	7.00	-6.44
Torso	-41.85	7.00	-6.44
root	123.01	-125.16	2910.18	-16.70	2.19	-2.23
LeftShoulder	-27.77	-10.88	-64.23
RightShoulder	-20.27	30.29	73.36
LeftElbow	-38.89	43.22	-98.82
RightElbow	-19.10	-23.89	91.90
LeftWrist	-41.60	46.44	-102.66
RightWrist	-19.61	-26.95	93.08
LeftHand	-41.60	46.44	-102.66
RightHand	-19.61	-26.95	93.08
LeftHip	44.96	2.83	6.32
RightHip	34.52	-1.74	1.85
LeftKnee	-21.64	2.83	6.32
RightKnee	-19.89	-1.74	1.85
LeftAnkle	-21.64	2.83	6.32
RightAnkle	-19.89	-1.74	1.85
149
Head	-42.37	7.42	-6.84
Neck	-42.37	7.42	-6.84
LeftCollar	-42.37	7.42	-6.84
Torso	-42.37	7.42	-6.84
root	123.26	-152.76	2912.07	-17.59	1.51	-2.06
LeftShoulder	-29.43	-13.10	-63.50
RightShoulder	-18.71	31.53	73.68
LeftElbow	-40.98	43.14	-101.50
RightElbow	-17.46	-24.29	91.10
LeftWrist	-43.94	46.40	-105.70
RightWrist	-17.97	-27.59	92.27
LeftHand	-43.94	46.40	-105.70
RightHand	-17.97	-27.59	92.27
LeftHip	47.08	0.88	5.79
RightHip	33.87	-0.70	2.02
LeftKnee	-23.44	0.88	5.79
RightKnee	-21.45	-0.70	2.02
LeftAnkle	-23.44	0.88	5.79
RightAnkle	-21.45	-0.70	2.02
150
Head	-42.81	7.64	-7.46
Neck	-42.81	7.64	-7.46
LeftCollar	-42.81	7.64	-7.46
Torso	-42.81	7.64	-7.46
root	123.75	-174.40	2913.09	-18.42	1.41	-2.19
LeftShoulder	-30.50	-16.52	-62.31
RightShoulder	-17.22	32.85	74.28
LeftElbow	-42.44	43.86	-104.18
RightElbow	-16.01	-25.63	90.90
LeftWrist	-45.82	47.27	-108.90
RightWrist	-16.56	-29.25	92.09
LeftHand	-45.82	47.27	-108.90
RightHand	-16.56	-29.25	92.09
LeftHip	49.78	-1.09	5.15
RightHip	34.73	0.22	2.53
LeftKnee	-26.10	-1.09	5.15
RightKnee	-22.35	0.22	2.53
LeftAnkle	-26.10	-1.09	5.15
RightAnkle	-22.35	0.22	2.53
